<svg width="136" height="41" viewBox="0 0 136 41" fill="none" xmlns="http://www.w3.org/2000/svg">
<g filter="url(#filter0_d_6_118)">
<rect x="5" y="1" width="126" height="31" rx="2" fill="#E58080" shape-rendering="crispEdges"/>
<path d="M21.264 23.18C20.148 23.18 19.2 22.988 18.42 22.604C17.652 22.208 17.064 21.65 16.656 20.93C16.248 20.198 16.02 19.322 15.972 18.302C15.96 17.81 15.954 17.282 15.954 16.718C15.954 16.154 15.96 15.614 15.972 15.098C16.02 14.09 16.248 13.22 16.656 12.488C17.076 11.756 17.67 11.198 18.438 10.814C19.218 10.418 20.16 10.22 21.264 10.22C22.08 10.22 22.812 10.328 23.46 10.544C24.108 10.76 24.66 11.06 25.116 11.444C25.572 11.816 25.926 12.254 26.178 12.758C26.43 13.262 26.562 13.808 26.574 14.396C26.586 14.504 26.55 14.594 26.466 14.666C26.394 14.738 26.304 14.774 26.196 14.774H24.486C24.354 14.774 24.246 14.744 24.162 14.684C24.078 14.612 24.018 14.498 23.982 14.342C23.79 13.55 23.46 13.01 22.992 12.722C22.524 12.434 21.942 12.29 21.246 12.29C20.442 12.29 19.8 12.518 19.32 12.974C18.84 13.418 18.582 14.156 18.546 15.188C18.51 16.172 18.51 17.18 18.546 18.212C18.582 19.244 18.84 19.988 19.32 20.444C19.8 20.888 20.442 21.11 21.246 21.11C21.942 21.11 22.524 20.966 22.992 20.678C23.46 20.378 23.79 19.838 23.982 19.058C24.018 18.89 24.078 18.776 24.162 18.716C24.246 18.656 24.354 18.626 24.486 18.626H26.196C26.304 18.626 26.394 18.662 26.466 18.734C26.55 18.806 26.586 18.896 26.574 19.004C26.562 19.592 26.43 20.138 26.178 20.642C25.926 21.146 25.572 21.59 25.116 21.974C24.66 22.346 24.108 22.64 23.46 22.856C22.812 23.072 22.08 23.18 21.264 23.18ZM32.6327 23.18C31.6727 23.18 30.8627 23.012 30.2027 22.676C29.5547 22.34 29.0567 21.866 28.7087 21.254C28.3727 20.642 28.1807 19.928 28.1327 19.112C28.1207 18.896 28.1147 18.632 28.1147 18.32C28.1147 18.008 28.1207 17.744 28.1327 17.528C28.1807 16.7 28.3787 15.986 28.7267 15.386C29.0867 14.774 29.5907 14.3 30.2387 13.964C30.8987 13.628 31.6967 13.46 32.6327 13.46C33.5687 13.46 34.3607 13.628 35.0087 13.964C35.6687 14.3 36.1727 14.774 36.5207 15.386C36.8807 15.986 37.0847 16.7 37.1327 17.528C37.1447 17.744 37.1507 18.008 37.1507 18.32C37.1507 18.632 37.1447 18.896 37.1327 19.112C37.0847 19.928 36.8867 20.642 36.5387 21.254C36.2027 21.866 35.7047 22.34 35.0447 22.676C34.3967 23.012 33.5927 23.18 32.6327 23.18ZM32.6327 21.398C33.2687 21.398 33.7607 21.2 34.1087 20.804C34.4567 20.396 34.6487 19.802 34.6847 19.022C34.6967 18.842 34.7027 18.608 34.7027 18.32C34.7027 18.032 34.6967 17.798 34.6847 17.618C34.6487 16.85 34.4567 16.262 34.1087 15.854C33.7607 15.446 33.2687 15.242 32.6327 15.242C31.9967 15.242 31.5047 15.446 31.1567 15.854C30.8087 16.262 30.6167 16.85 30.5807 17.618C30.5687 17.798 30.5627 18.032 30.5627 18.32C30.5627 18.608 30.5687 18.842 30.5807 19.022C30.6167 19.802 30.8087 20.396 31.1567 20.804C31.5047 21.2 31.9967 21.398 32.6327 21.398ZM39.577 23C39.457 23 39.355 22.958 39.271 22.874C39.187 22.79 39.145 22.688 39.145 22.568V14.072C39.145 13.952 39.187 13.85 39.271 13.766C39.355 13.682 39.457 13.64 39.577 13.64H41.053C41.173 13.64 41.275 13.682 41.359 13.766C41.443 13.85 41.485 13.952 41.485 14.072V14.81C41.797 14.426 42.193 14.108 42.673 13.856C43.165 13.592 43.771 13.46 44.491 13.46C45.223 13.46 45.859 13.628 46.399 13.964C46.939 14.288 47.353 14.75 47.641 15.35C47.941 15.95 48.091 16.67 48.091 17.51V22.568C48.091 22.688 48.049 22.79 47.965 22.874C47.881 22.958 47.779 23 47.659 23H46.075C45.955 23 45.853 22.958 45.769 22.874C45.685 22.79 45.643 22.688 45.643 22.568V17.618C45.643 16.922 45.469 16.376 45.121 15.98C44.785 15.584 44.293 15.386 43.645 15.386C43.021 15.386 42.523 15.584 42.151 15.98C41.779 16.376 41.593 16.922 41.593 17.618V22.568C41.593 22.688 41.551 22.79 41.467 22.874C41.383 22.958 41.281 23 41.161 23H39.577ZM54.502 23C53.782 23 53.176 22.874 52.684 22.622C52.192 22.37 51.826 21.998 51.586 21.506C51.346 21.002 51.226 20.378 51.226 19.634V15.548H49.804C49.684 15.548 49.582 15.506 49.498 15.422C49.414 15.338 49.372 15.236 49.372 15.116V14.072C49.372 13.952 49.414 13.85 49.498 13.766C49.582 13.682 49.684 13.64 49.804 13.64H51.226V10.652C51.226 10.532 51.262 10.43 51.334 10.346C51.418 10.262 51.526 10.22 51.658 10.22H53.116C53.236 10.22 53.338 10.262 53.422 10.346C53.506 10.43 53.548 10.532 53.548 10.652V13.64H55.798C55.918 13.64 56.02 13.682 56.104 13.766C56.188 13.85 56.23 13.952 56.23 14.072V15.116C56.23 15.236 56.188 15.338 56.104 15.422C56.02 15.506 55.918 15.548 55.798 15.548H53.548V19.454C53.548 19.946 53.632 20.33 53.8 20.606C53.98 20.882 54.286 21.02 54.718 21.02H55.96C56.08 21.02 56.182 21.062 56.266 21.146C56.35 21.23 56.392 21.332 56.392 21.452V22.568C56.392 22.688 56.35 22.79 56.266 22.874C56.182 22.958 56.08 23 55.96 23H54.502ZM60.7068 23.18C60.0828 23.18 59.5188 23.06 59.0148 22.82C58.5108 22.568 58.1088 22.238 57.8088 21.83C57.5208 21.41 57.3768 20.942 57.3768 20.426C57.3768 19.586 57.7128 18.92 58.3848 18.428C59.0688 17.924 59.9688 17.588 61.0848 17.42L63.5508 17.06V16.682C63.5508 16.178 63.4248 15.788 63.1728 15.512C62.9208 15.236 62.4888 15.098 61.8768 15.098C61.4448 15.098 61.0908 15.188 60.8148 15.368C60.5508 15.536 60.3528 15.764 60.2208 16.052C60.1248 16.208 59.9868 16.286 59.8068 16.286H58.3848C58.2528 16.286 58.1508 16.25 58.0788 16.178C58.0188 16.106 57.9888 16.01 57.9888 15.89C58.0008 15.698 58.0788 15.464 58.2228 15.188C58.3668 14.912 58.5948 14.648 58.9068 14.396C59.2188 14.132 59.6208 13.91 60.1128 13.73C60.6048 13.55 61.1988 13.46 61.8948 13.46C62.6508 13.46 63.2868 13.556 63.8028 13.748C64.3308 13.928 64.7508 14.174 65.0628 14.486C65.3748 14.798 65.6028 15.164 65.7468 15.584C65.8908 16.004 65.9628 16.448 65.9628 16.916V22.568C65.9628 22.688 65.9208 22.79 65.8368 22.874C65.7528 22.958 65.6508 23 65.5308 23H64.0728C63.9408 23 63.8328 22.958 63.7488 22.874C63.6768 22.79 63.6408 22.688 63.6408 22.568V21.866C63.4848 22.094 63.2748 22.31 63.0108 22.514C62.7468 22.706 62.4228 22.868 62.0388 23C61.6668 23.12 61.2228 23.18 60.7068 23.18ZM61.3188 21.47C61.7388 21.47 62.1168 21.38 62.4528 21.2C62.8008 21.02 63.0708 20.744 63.2628 20.372C63.4668 19.988 63.5688 19.508 63.5688 18.932V18.554L61.7688 18.842C61.0608 18.95 60.5328 19.124 60.1848 19.364C59.8368 19.604 59.6628 19.898 59.6628 20.246C59.6628 20.51 59.7408 20.738 59.8968 20.93C60.0648 21.11 60.2748 21.248 60.5268 21.344C60.7788 21.428 61.0428 21.47 61.3188 21.47ZM72.4141 23C71.6941 23 71.0881 22.874 70.5961 22.622C70.1041 22.37 69.7381 21.998 69.4981 21.506C69.2581 21.002 69.1381 20.378 69.1381 19.634V15.548H67.7161C67.5961 15.548 67.4941 15.506 67.4101 15.422C67.3261 15.338 67.2841 15.236 67.2841 15.116V14.072C67.2841 13.952 67.3261 13.85 67.4101 13.766C67.4941 13.682 67.5961 13.64 67.7161 13.64H69.1381V10.652C69.1381 10.532 69.1741 10.43 69.2461 10.346C69.3301 10.262 69.4381 10.22 69.5701 10.22H71.0281C71.1481 10.22 71.2501 10.262 71.3341 10.346C71.4181 10.43 71.4601 10.532 71.4601 10.652V13.64H73.7101C73.8301 13.64 73.9321 13.682 74.0161 13.766C74.1001 13.85 74.1421 13.952 74.1421 14.072V15.116C74.1421 15.236 74.1001 15.338 74.0161 15.422C73.9321 15.506 73.8301 15.548 73.7101 15.548H71.4601V19.454C71.4601 19.946 71.5441 20.33 71.7121 20.606C71.8921 20.882 72.1981 21.02 72.6301 21.02H73.8721C73.9921 21.02 74.0941 21.062 74.1781 21.146C74.2621 21.23 74.3041 21.332 74.3041 21.452V22.568C74.3041 22.688 74.2621 22.79 74.1781 22.874C74.0941 22.958 73.9921 23 73.8721 23H72.4141ZM79.9329 23.18C78.6009 23.18 77.5449 22.796 76.7649 22.028C75.9849 21.26 75.5649 20.168 75.5049 18.752C75.4929 18.632 75.4869 18.482 75.4869 18.302C75.4869 18.11 75.4929 17.96 75.5049 17.852C75.5529 16.952 75.7569 16.172 76.1169 15.512C76.4889 14.852 76.9989 14.348 77.6469 14C78.2949 13.64 79.0569 13.46 79.9329 13.46C80.9049 13.46 81.7209 13.664 82.3809 14.072C83.0409 14.468 83.5389 15.026 83.8749 15.746C84.2109 16.454 84.3789 17.276 84.3789 18.212V18.59C84.3789 18.71 84.3369 18.812 84.2529 18.896C84.1689 18.98 84.0609 19.022 83.9289 19.022H77.9529C77.9529 19.022 77.9529 19.04 77.9529 19.076C77.9529 19.112 77.9529 19.142 77.9529 19.166C77.9649 19.586 78.0429 19.976 78.1869 20.336C78.3429 20.684 78.5649 20.966 78.8529 21.182C79.1529 21.398 79.5069 21.506 79.9149 21.506C80.2509 21.506 80.5329 21.458 80.7609 21.362C80.9889 21.254 81.1749 21.134 81.3189 21.002C81.4629 20.87 81.5649 20.762 81.6249 20.678C81.7329 20.534 81.8169 20.45 81.8769 20.426C81.9489 20.39 82.0509 20.372 82.1829 20.372H83.7309C83.8509 20.372 83.9469 20.408 84.0189 20.48C84.1029 20.552 84.1389 20.642 84.1269 20.75C84.1149 20.942 84.0129 21.176 83.8209 21.452C83.6409 21.728 83.3769 21.998 83.0289 22.262C82.6809 22.526 82.2429 22.748 81.7149 22.928C81.1989 23.096 80.6049 23.18 79.9329 23.18ZM77.9529 17.51H81.9309V17.456C81.9309 16.988 81.8529 16.58 81.6969 16.232C81.5409 15.884 81.3129 15.608 81.0129 15.404C80.7129 15.2 80.3529 15.098 79.9329 15.098C79.5129 15.098 79.1529 15.2 78.8529 15.404C78.5529 15.608 78.3249 15.884 78.1689 16.232C78.0249 16.58 77.9529 16.988 77.9529 17.456V17.51ZM86.6676 18.626C86.5356 18.626 86.4276 18.584 86.3436 18.5C86.2716 18.416 86.2356 18.314 86.2356 18.194V17.006C86.2356 16.886 86.2716 16.784 86.3436 16.7C86.4276 16.616 86.5356 16.574 86.6676 16.574H92.1936C92.3136 16.574 92.4156 16.616 92.4996 16.7C92.5836 16.784 92.6256 16.886 92.6256 17.006V18.194C92.6256 18.314 92.5836 18.416 92.4996 18.5C92.4156 18.584 92.3136 18.626 92.1936 18.626H86.6676ZM95.37 23C95.25 23 95.148 22.958 95.064 22.874C94.98 22.79 94.938 22.688 94.938 22.568V14.072C94.938 13.952 94.98 13.85 95.064 13.766C95.148 13.682 95.25 13.64 95.37 13.64H96.774C96.894 13.64 96.996 13.682 97.08 13.766C97.164 13.85 97.206 13.952 97.206 14.072V14.684C97.458 14.348 97.794 14.066 98.214 13.838C98.646 13.598 99.156 13.472 99.744 13.46C101.112 13.436 102.066 13.97 102.606 15.062C102.882 14.582 103.278 14.198 103.794 13.91C104.322 13.61 104.904 13.46 105.54 13.46C106.164 13.46 106.728 13.604 107.232 13.892C107.748 14.18 108.15 14.618 108.438 15.206C108.738 15.782 108.888 16.514 108.888 17.402V22.568C108.888 22.688 108.846 22.79 108.762 22.874C108.678 22.958 108.576 23 108.456 23H106.98C106.86 23 106.758 22.958 106.674 22.874C106.59 22.79 106.548 22.688 106.548 22.568V17.546C106.548 17.006 106.47 16.58 106.314 16.268C106.158 15.944 105.948 15.716 105.684 15.584C105.42 15.452 105.126 15.386 104.802 15.386C104.538 15.386 104.274 15.452 104.01 15.584C103.746 15.716 103.53 15.944 103.362 16.268C103.194 16.58 103.11 17.006 103.11 17.546V22.568C103.11 22.688 103.068 22.79 102.984 22.874C102.9 22.958 102.798 23 102.678 23H101.202C101.07 23 100.962 22.958 100.878 22.874C100.806 22.79 100.77 22.688 100.77 22.568V17.546C100.77 17.006 100.686 16.58 100.518 16.268C100.35 15.944 100.134 15.716 99.87 15.584C99.606 15.452 99.324 15.386 99.024 15.386C98.748 15.386 98.478 15.458 98.214 15.602C97.95 15.734 97.734 15.956 97.566 16.268C97.398 16.58 97.314 17.006 97.314 17.546V22.568C97.314 22.688 97.272 22.79 97.188 22.874C97.104 22.958 97.002 23 96.882 23H95.37ZM115.212 23.18C113.88 23.18 112.824 22.796 112.044 22.028C111.264 21.26 110.844 20.168 110.784 18.752C110.772 18.632 110.766 18.482 110.766 18.302C110.766 18.11 110.772 17.96 110.784 17.852C110.832 16.952 111.036 16.172 111.396 15.512C111.768 14.852 112.278 14.348 112.926 14C113.574 13.64 114.336 13.46 115.212 13.46C116.184 13.46 117 13.664 117.66 14.072C118.32 14.468 118.818 15.026 119.154 15.746C119.49 16.454 119.658 17.276 119.658 18.212V18.59C119.658 18.71 119.616 18.812 119.532 18.896C119.448 18.98 119.34 19.022 119.208 19.022H113.232C113.232 19.022 113.232 19.04 113.232 19.076C113.232 19.112 113.232 19.142 113.232 19.166C113.244 19.586 113.322 19.976 113.466 20.336C113.622 20.684 113.844 20.966 114.132 21.182C114.432 21.398 114.786 21.506 115.194 21.506C115.53 21.506 115.812 21.458 116.04 21.362C116.268 21.254 116.454 21.134 116.598 21.002C116.742 20.87 116.844 20.762 116.904 20.678C117.012 20.534 117.096 20.45 117.156 20.426C117.228 20.39 117.33 20.372 117.462 20.372H119.01C119.13 20.372 119.226 20.408 119.298 20.48C119.382 20.552 119.418 20.642 119.406 20.75C119.394 20.942 119.292 21.176 119.1 21.452C118.92 21.728 118.656 21.998 118.308 22.262C117.96 22.526 117.522 22.748 116.994 22.928C116.478 23.096 115.884 23.18 115.212 23.18ZM113.232 17.51H117.21V17.456C117.21 16.988 117.132 16.58 116.976 16.232C116.82 15.884 116.592 15.608 116.292 15.404C115.992 15.2 115.632 15.098 115.212 15.098C114.792 15.098 114.432 15.2 114.132 15.404C113.832 15.608 113.604 15.884 113.448 16.232C113.304 16.58 113.232 16.988 113.232 17.456V17.51Z" fill="#1E1E1E"/>
</g>
<defs>
<filter id="filter0_d_6_118" x="0" y="0" width="136" height="41" filterUnits="userSpaceOnUse" color-interpolation-filters="sRGB">
<feFlood flood-opacity="0" result="BackgroundImageFix"/>
<feColorMatrix in="SourceAlpha" type="matrix" values="0 0 0 0 0 0 0 0 0 0 0 0 0 0 0 0 0 0 127 0" result="hardAlpha"/>
<feOffset dy="4"/>
<feGaussianBlur stdDeviation="2.5"/>
<feComposite in2="hardAlpha" operator="out"/>
<feColorMatrix type="matrix" values="0 0 0 0 0 0 0 0 0 0 0 0 0 0 0 0 0 0 0.1 0"/>
<feBlend mode="normal" in2="BackgroundImageFix" result="effect1_dropShadow_6_118"/>
<feBlend mode="normal" in="SourceGraphic" in2="effect1_dropShadow_6_118" result="shape"/>
</filter>
</defs>
</svg>
