<svg width="70" height="31" viewBox="0 0 70 31" fill="none" xmlns="http://www.w3.org/2000/svg">
<rect width="5.22372" height="31.9953" rx="0.652966" transform="matrix(-0.707107 -0.707107 -0.707107 0.707107 26.3178 4.26276)" fill="#E58080"/>
<rect width="5.22372" height="31.9953" rx="0.652966" transform="matrix(-0.707107 -0.707107 -0.707107 0.707107 32.9687 4.38452)" fill="#E76D6D"/>
<path d="M15.0625 24.4839C14.919 24.4839 14.8041 24.4409 14.7179 24.3547C14.6318 24.2686 14.5887 24.1537 14.5887 24.0101V9.90242C14.5887 9.74447 14.6318 9.62242 14.7179 9.53626C14.8041 9.45011 14.919 9.40703 15.0625 9.40703H20.2964C21.3015 9.40703 22.1702 9.57934 22.9025 9.92396C23.6492 10.2542 24.2236 10.7496 24.6256 11.4101C25.042 12.0706 25.2502 12.8891 25.2502 13.8655C25.2502 14.8419 25.042 15.6604 24.6256 16.3209C24.2236 16.9814 23.6492 17.484 22.9025 17.8286C22.1702 18.1588 21.3015 18.324 20.2964 18.324H15.9456V24.0101C15.9456 24.1537 15.9025 24.2686 15.8164 24.3547C15.7302 24.4409 15.6082 24.4839 15.4502 24.4839H15.0625ZM15.9456 17.0316H20.1887C21.4379 17.0316 22.3641 16.7588 22.9672 16.2132C23.5846 15.6675 23.8933 14.885 23.8933 13.8655C23.8933 12.846 23.5846 12.0634 22.9672 11.5178C22.3641 10.9722 21.4379 10.6993 20.1887 10.6993H15.9456V17.0316ZM31.843 24.6993C30.4502 24.6993 29.3446 24.247 28.5261 23.3424C27.7076 22.4234 27.241 21.2245 27.1261 19.7455C27.1117 19.5301 27.1046 19.2429 27.1046 18.884C27.1046 18.525 27.1117 18.2378 27.1261 18.0224C27.1979 17.046 27.4276 16.1845 27.8153 15.4378C28.203 14.6911 28.7343 14.1096 29.4092 13.6932C30.0984 13.2768 30.9097 13.0686 31.843 13.0686C32.8481 13.0686 33.7025 13.2911 34.4061 13.7363C35.1097 14.1814 35.6481 14.8204 36.0215 15.6532C36.4092 16.486 36.603 17.4768 36.603 18.6255V18.9486C36.603 19.0922 36.5528 19.207 36.4522 19.2932C36.3661 19.3793 36.2512 19.4224 36.1076 19.4224H28.4399C28.4399 19.4224 28.4399 19.4511 28.4399 19.5086C28.4399 19.566 28.4399 19.6091 28.4399 19.6378C28.4687 20.284 28.6194 20.9014 28.8923 21.4901C29.1651 22.0645 29.5528 22.5383 30.0553 22.9116C30.5579 23.2706 31.1538 23.4501 31.843 23.4501C32.4605 23.4501 32.9702 23.3568 33.3722 23.1701C33.7887 22.9834 34.1189 22.7824 34.363 22.567C34.6071 22.3373 34.7651 22.165 34.8369 22.0501C34.9661 21.8634 35.0666 21.7557 35.1384 21.727C35.2102 21.6839 35.3251 21.6624 35.483 21.6624H35.8276C35.9569 21.6624 36.0646 21.7055 36.1507 21.7916C36.2512 21.8634 36.2943 21.9639 36.2799 22.0932C36.2656 22.2942 36.1507 22.5455 35.9353 22.847C35.7343 23.1342 35.4399 23.4214 35.0522 23.7086C34.6789 23.9957 34.2194 24.2327 33.6738 24.4193C33.1281 24.606 32.5179 24.6993 31.843 24.6993ZM28.4399 18.2163H35.2892V18.1301C35.2892 17.4122 35.1528 16.766 34.8799 16.1916C34.6071 15.6173 34.2122 15.165 33.6953 14.8347C33.1784 14.4901 32.561 14.3178 31.843 14.3178C31.1251 14.3178 30.5076 14.4901 29.9907 14.8347C29.4881 15.165 29.1005 15.6173 28.8276 16.1916C28.5692 16.766 28.4399 17.4122 28.4399 18.1301V18.2163ZM43.4931 24.6993C42.6603 24.6993 41.9495 24.5486 41.3608 24.247C40.7865 23.9455 40.3198 23.5434 39.9608 23.0409C39.6019 22.5383 39.3362 21.9783 39.1639 21.3609C39.006 20.7434 38.9126 20.1188 38.8839 19.487C38.8695 19.2716 38.8624 19.0706 38.8624 18.884C38.8624 18.6973 38.8695 18.4963 38.8839 18.2809C38.9126 17.6491 39.006 17.0245 39.1639 16.407C39.3362 15.7896 39.6019 15.2296 39.9608 14.727C40.3198 14.2245 40.7865 13.8224 41.3608 13.5209C41.9495 13.2193 42.6603 13.0686 43.4931 13.0686C44.3834 13.0686 45.1157 13.2337 45.6901 13.564C46.2788 13.8942 46.7526 14.2963 47.1116 14.7701V9.66549C47.1116 9.52191 47.1547 9.40703 47.2408 9.32088C47.327 9.23473 47.4418 9.19165 47.5854 9.19165H47.9516C48.0952 9.19165 48.2101 9.23473 48.2962 9.32088C48.3824 9.40703 48.4254 9.52191 48.4254 9.66549V24.0101C48.4254 24.1537 48.3824 24.2686 48.2962 24.3547C48.2101 24.4409 48.0952 24.4839 47.9516 24.4839H47.5854C47.4418 24.4839 47.327 24.4409 47.2408 24.3547C47.1547 24.2686 47.1116 24.1537 47.1116 24.0101V22.9978C46.7526 23.486 46.2788 23.8952 45.6901 24.2255C45.1157 24.5414 44.3834 24.6993 43.4931 24.6993ZM43.6224 23.4501C44.4408 23.4501 45.1013 23.2563 45.6039 22.8686C46.1065 22.4809 46.4798 21.9998 46.7239 21.4255C46.968 20.8368 47.0972 20.2481 47.1116 19.6593C47.1259 19.444 47.1331 19.164 47.1331 18.8193C47.1331 18.4747 47.1259 18.1947 47.1116 17.9793C47.0972 17.405 46.9608 16.8378 46.7024 16.2778C46.4583 15.7178 46.0849 15.2511 45.5824 14.8778C45.0798 14.5045 44.4265 14.3178 43.6224 14.3178C42.7895 14.3178 42.1218 14.5045 41.6193 14.8778C41.1311 15.2511 40.7793 15.7393 40.5639 16.3424C40.3485 16.9455 40.2265 17.5916 40.1977 18.2809C40.1834 18.6829 40.1834 19.085 40.1977 19.487C40.2265 20.1763 40.3485 20.8224 40.5639 21.4255C40.7793 22.0286 41.1311 22.5168 41.6193 22.8901C42.1218 23.2634 42.7895 23.4501 43.6224 23.4501ZM52.4117 24.4839C52.2681 24.4839 52.1533 24.4409 52.0671 24.3547C51.981 24.2686 51.9379 24.1537 51.9379 24.0101V13.7793C51.9379 13.6357 51.981 13.5209 52.0671 13.4347C52.1533 13.3342 52.2681 13.284 52.4117 13.284H52.7563C52.8999 13.284 53.0148 13.3342 53.101 13.4347C53.2015 13.5209 53.2517 13.6357 53.2517 13.7793V14.7701C53.5102 14.2675 53.8835 13.8942 54.3717 13.6501C54.8599 13.406 55.463 13.284 56.181 13.284H56.9779C57.1215 13.284 57.2363 13.327 57.3225 13.4132C57.4086 13.4993 57.4517 13.6142 57.4517 13.7578V14.0593C57.4517 14.2029 57.4086 14.3178 57.3225 14.404C57.2363 14.4901 57.1215 14.5332 56.9779 14.5332H56.0517C55.1902 14.5332 54.5081 14.7845 54.0056 15.287C53.503 15.7896 53.2517 16.4716 53.2517 17.3332V24.0101C53.2517 24.1537 53.2015 24.2686 53.101 24.3547C53.0148 24.4409 52.8999 24.4839 52.7563 24.4839H52.4117ZM63.4381 24.6993C62.4042 24.6993 61.5355 24.4839 60.8319 24.0532C60.1427 23.6224 59.6114 23.0337 59.2381 22.287C58.8791 21.5404 58.6853 20.7075 58.6565 19.7886C58.6422 19.5732 58.635 19.2716 58.635 18.884C58.635 18.4963 58.6422 18.1947 58.6565 17.9793C58.6853 17.046 58.8791 16.2132 59.2381 15.4809C59.6114 14.7342 60.1427 14.1455 60.8319 13.7147C61.5355 13.284 62.4042 13.0686 63.4381 13.0686C64.4719 13.0686 65.3335 13.284 66.0227 13.7147C66.7263 14.1455 67.2576 14.7342 67.6165 15.4809C67.9899 16.2132 68.1909 17.046 68.2196 17.9793C68.234 18.1947 68.2411 18.4963 68.2411 18.884C68.2411 19.2716 68.234 19.5732 68.2196 19.7886C68.1909 20.7075 67.9899 21.5404 67.6165 22.287C67.2576 23.0337 66.7263 23.6224 66.0227 24.0532C65.3335 24.4839 64.4719 24.6993 63.4381 24.6993ZM63.4381 23.4501C64.4432 23.4501 65.2617 23.127 65.8935 22.4809C66.5252 21.8347 66.8627 20.9014 66.9058 19.6809C66.9201 19.4655 66.9273 19.1998 66.9273 18.884C66.9273 18.5681 66.9201 18.3024 66.9058 18.087C66.8627 16.8522 66.5252 15.9188 65.8935 15.287C65.2617 14.6409 64.4432 14.3178 63.4381 14.3178C62.4329 14.3178 61.6145 14.6409 60.9827 15.287C60.3509 15.9188 60.0135 16.8522 59.9704 18.087C59.956 18.3024 59.9488 18.5681 59.9488 18.884C59.9488 19.1998 59.956 19.4655 59.9704 19.6809C60.0135 20.9014 60.3509 21.8347 60.9827 22.4809C61.6145 23.127 62.4329 23.4501 63.4381 23.4501Z" fill="black"/>
</svg>
